<mxfile host="app.diagrams.net" modified="2024-07-12T14:06:50.180Z" agent="Mozilla/5.0 (Macintosh; Intel Mac OS X 10_15_7) AppleWebKit/537.36 (KHTML, like Gecko) Chrome/126.0.0.0 Safari/537.36" version="24.6.5" etag="tobwrMBkYVJzYH_tuWWy" type="github">
  <diagram name="페이지-1" id="TTlNLRNe8yzCkHO6Mb9V">
    <mxGraphModel>
      <root>
        <mxCell id="0" />
        <mxCell id="1" parent="0" />
      </root>
    </mxGraphModel>
  </diagram>
</mxfile>
